<svg xmlns="http://www.w3.org/2000/svg" width="805" height="600"><rect width="805" height="600" x="0" y="0" fill="#FFFFFF" id="background"/><g transform="translate(10,10)" id="visualization"><g><rect x="780" y="0" height="17.093949044585997" width="5" fill="black"><title>Estados Unidos: 19</title></rect><rect x="780" y="22.093949044585997" height="39.5859872611465" width="5" fill="black"><title>Portugal: 44</title></rect><rect x="780" y="66.6799363057325" height="39.58598726114644" width="5" fill="black"><title>Francia: 44</title></rect><rect x="0" y="0" height="79.17197452229298" width="5" fill="black"><title>IN23: 88</title></rect><rect x="0" y="84.17197452229298" height="111.56050955414013" width="5" fill="black"><title>A22: 124</title></rect><rect x="0" y="200.7324840764331" height="156.54458598726117" width="5" fill="black"><title>L20: 174</title></rect><rect x="0" y="362.2770700636943" height="217.72292993630572" width="5" fill="black"><title>S10-Rev23: 242</title></rect><rect x="780" y="111.26592356687894" height="468.73407643312106" width="5" fill="black"><title>Argentina: 521</title></rect></g><g fill="none" stroke-opacity="1"><g style="mix-blend-mode: multiply;"><path d="M5,148.49920382165604C392.5,148.49920382165604,392.5,158.499203821656,780,158.499203821656" stroke="#1f77b4" stroke-width="94.46656050955414"/><title>A22 → Argentina: 105</title></g><g style="mix-blend-mode: multiply;"><path d="M5,92.71894904458598C392.5,92.71894904458598,392.5,8.546974522292993,780,8.546974522292993" stroke="#1f77b4" stroke-width="17.093949044585987"/><title>A22 → Estados Unidos: 19</title></g><g style="mix-blend-mode: multiply;"><path d="M5,19.792993630573246C392.5,19.792993630573246,392.5,41.88694267515925,780,41.88694267515925" stroke="#ff7f0e" stroke-width="39.58598726114649"/><title>IN23 → Portugal: 44</title></g><g style="mix-blend-mode: multiply;"><path d="M5,59.378980891719735C392.5,59.378980891719735,392.5,86.47292993630575,780,86.47292993630575" stroke="#ff7f0e" stroke-width="39.58598726114649"/><title>IN23 → Francia: 44</title></g><g style="mix-blend-mode: multiply;"><path d="M5,279.0047770700637C392.5,279.0047770700637,392.5,284.00477707006365,780,284.00477707006365" stroke="#2ca02c" stroke-width="156.54458598726114"/><title>L20 → Argentina: 174</title></g><g style="mix-blend-mode: multiply;"><path d="M5,471.13853503184714C392.5,471.13853503184714,392.5,471.1385350318471,780,471.1385350318471" stroke="#d62728" stroke-width="217.72292993630572"/><title>S10-Rev23 → Argentina: 242</title></g></g><g><text x="776" y="8.546974522292999" text-anchor="end"><tspan alignment-baseline="middle" x="776" style="font-family: Arial, sans-serif; font-size: 10px; fill: black; font-weight: bold;">Estados Unidos</tspan></text><text x="776" y="41.88694267515925" text-anchor="end"><tspan alignment-baseline="middle" x="776" style="font-family: Arial, sans-serif; font-size: 10px; fill: black; font-weight: bold;">Portugal</tspan></text><text x="776" y="86.47292993630572" text-anchor="end"><tspan alignment-baseline="middle" x="776" style="font-family: Arial, sans-serif; font-size: 10px; fill: black; font-weight: bold;">Francia</tspan></text><text x="9" y="39.58598726114649" text-anchor="start"><tspan alignment-baseline="middle" x="9" style="font-family: Arial, sans-serif; font-size: 10px; fill: black; font-weight: bold;">IN23</tspan></text><text x="9" y="139.95222929936304" text-anchor="start"><tspan alignment-baseline="middle" x="9" style="font-family: Arial, sans-serif; font-size: 10px; fill: black; font-weight: bold;">A22</tspan></text><text x="9" y="279.0047770700637" text-anchor="start"><tspan alignment-baseline="middle" x="9" style="font-family: Arial, sans-serif; font-size: 10px; fill: black; font-weight: bold;">L20</tspan></text><text x="9" y="471.13853503184714" text-anchor="start"><tspan alignment-baseline="middle" x="9" style="font-family: Arial, sans-serif; font-size: 10px; fill: black; font-weight: bold;">S10-Rev23</tspan></text><text x="776" y="345.63296178343944" text-anchor="end"><tspan alignment-baseline="middle" x="776" style="font-family: Arial, sans-serif; font-size: 10px; fill: black; font-weight: bold;">Argentina</tspan></text></g><g><text x="782.5" y="-4" text-anchor="middle" style="font-family: Arial, sans-serif; font-size: 12px; fill: rgb(123, 123, 123); font-weight: bold;">nacionalidad</text><text x="2.5" y="-4" text-anchor="middle" style="font-family: Arial, sans-serif; font-size: 12px; fill: rgb(123, 123, 123); font-weight: bold;">plan</text></g></g></svg>